<svg width="24" height="25" viewBox="0 0 24 25" fill="none" xmlns="http://www.w3.org/2000/svg">
<g clip-path="url(#clip0_56_692)">
<path d="M12 0.545898C9.62663 0.545898 7.30655 1.24969 5.33316 2.56826C3.35977 3.88684 1.8217 5.76098 0.913451 7.95369C0.00519945 10.1464 -0.232441 12.5592 0.230582 14.887C0.693604 17.2147 1.83649 19.3529 3.51472 21.0312C5.19295 22.7094 7.33115 23.8523 9.65892 24.3153C11.9867 24.7783 14.3995 24.5407 16.5922 23.6324C18.7849 22.7242 20.6591 21.1861 21.9776 19.2127C23.2962 17.2393 24 14.9193 24 12.5459C23.9962 9.36445 22.7308 6.31438 20.4811 4.06476C18.2315 1.81514 15.1814 0.549652 12 0.545898ZM17.4545 13.6368H13.0909V18.0004C13.0909 18.2898 12.976 18.5672 12.7714 18.7718C12.5668 18.9764 12.2893 19.0913 12 19.0913C11.7107 19.0913 11.4332 18.9764 11.2286 18.7718C11.024 18.5672 10.9091 18.2898 10.9091 18.0004V13.6368H6.54546C6.25613 13.6368 5.97865 13.5219 5.77407 13.3173C5.56948 13.1127 5.45455 12.8352 5.45455 12.5459C5.45455 12.2566 5.56948 11.9791 5.77407 11.7745C5.97865 11.5699 6.25613 11.455 6.54546 11.455H10.9091V7.09135C10.9091 6.80202 11.024 6.52455 11.2286 6.31996C11.4332 6.11538 11.7107 6.00044 12 6.00044C12.2893 6.00044 12.5668 6.11538 12.7714 6.31996C12.976 6.52455 13.0909 6.80202 13.0909 7.09135V11.455H17.4545C17.7439 11.455 18.0214 11.5699 18.2259 11.7745C18.4305 11.9791 18.5455 12.2566 18.5455 12.5459C18.5455 12.8352 18.4305 13.1127 18.2259 13.3173C18.0214 13.5219 17.7439 13.6368 17.4545 13.6368Z" fill="#999999"/>
</g>
<defs>
<clipPath id="clip0_56_692">
<rect width="24" height="24" fill="white" transform="translate(0 0.545898)"/>
</clipPath>
</defs>
</svg>
