<svg width="48" height="47" viewBox="0 0 48 47" fill="none" xmlns="http://www.w3.org/2000/svg">
<path d="M44.3999 23.5001C44.3999 12.2334 35.2665 3.1001 23.9999 3.1001C12.7332 3.1001 3.59985 12.2334 3.59985 23.5001C3.59985 34.7667 12.7332 43.9001 23.9999 43.9001H44.3999V40.5001H35.2624C40.9658 36.7241 44.3974 30.3408 44.3999 23.5001ZM33.9923 37.2537C31.7138 38.9088 28.5238 38.4041 26.8686 36.1248C25.2134 33.8462 25.7181 30.657 27.9967 29.001C30.2761 27.3458 33.4652 27.8505 35.1204 30.1299C36.7764 32.4085 36.2709 35.5977 33.9923 37.2537ZM33.7416 14.9727C36.4203 14.102 39.2974 15.5679 40.1681 18.2465C41.038 20.926 39.5721 23.8031 36.8935 24.673C34.2148 25.5437 31.3377 24.0778 30.467 21.3992C29.5971 18.7205 31.063 15.8426 33.7416 14.9727ZM23.9999 6.5001C26.8163 6.5001 29.0999 8.78364 29.0999 11.6001C29.0999 14.4166 26.8163 16.7001 23.9999 16.7001C21.1834 16.7001 18.8999 14.4166 18.8999 11.6001C18.8999 8.78364 21.1834 6.5001 23.9999 6.5001ZM7.83159 18.2465C8.70234 15.5679 11.5794 14.102 14.2581 14.9719C16.9367 15.8426 18.4026 18.7197 17.5327 21.3983C16.662 24.077 13.7849 25.5429 11.1062 24.673C8.42759 23.8031 6.96167 20.926 7.83159 18.2465ZM21.1311 36.1248C19.4759 38.4041 16.2859 38.9088 14.0074 37.2537C11.7288 35.5977 11.2233 32.4085 12.8793 30.1299C14.5345 27.8514 17.7245 27.3458 20.003 29.0019C22.2816 30.657 22.7863 33.8462 21.1311 36.1248ZM22.2999 23.5001C22.2999 22.5613 23.061 21.8001 23.9999 21.8001C24.9387 21.8001 25.6999 22.5613 25.6999 23.5001C25.6999 24.4389 24.9387 25.2001 23.9999 25.2001C23.061 25.2001 22.2999 24.4389 22.2999 23.5001Z" fill="url(#paint0_linear_7_51)"/>
<defs>
<linearGradient id="paint0_linear_7_51" x1="3.59985" y1="23.5001" x2="44.3999" y2="23.5001" gradientUnits="userSpaceOnUse">
<stop stop-color="#3464FF"/>
<stop offset="1" stop-color="#66C5EB"/>
</linearGradient>
</defs>
</svg>
