<svg width="262" height="64" viewBox="0 0 262 64" fill="none" xmlns="http://www.w3.org/2000/svg">
<path d="M71.7772 32C71.7772 22.356 63.9592 14.5381 54.3152 14.5381C44.6712 14.5381 36.8533 22.356 36.8533 32C36.8533 41.644 44.6712 49.462 54.3152 49.462H71.7772V46.5517H63.9557C68.8377 43.3195 71.7751 37.8555 71.7772 32ZM62.8686 43.7728C60.9182 45.1896 58.1876 44.7576 56.7708 42.8065C55.354 40.8561 55.786 38.1262 57.7364 36.7087C59.6875 35.2919 62.4174 35.7239 63.8342 37.675C65.2517 39.6254 64.819 42.3553 62.8686 43.7728ZM62.654 24.7008C64.9469 23.9554 67.4096 25.2102 68.1549 27.5031C68.8995 29.7967 67.6447 32.2594 65.3519 33.004C63.059 33.7494 60.5963 32.4946 59.851 30.2017C59.1063 27.9088 60.3611 25.4454 62.654 24.7008ZM54.3152 17.4484C56.7261 17.4484 58.6807 19.4031 58.6807 21.8139C58.6807 24.2247 56.7261 26.1794 54.3152 26.1794C51.9044 26.1794 49.9497 24.2247 49.9497 21.8139C49.9497 19.4031 51.9044 17.4484 54.3152 17.4484ZM40.4755 27.5031C41.2209 25.2102 43.6836 23.9554 45.9765 24.7001C48.2693 25.4454 49.5241 27.9081 48.7795 30.201C48.0342 32.4939 45.5715 33.7487 43.2786 33.004C40.9857 32.2594 39.7309 29.7967 40.4755 27.5031ZM51.8596 42.8065C50.4428 44.7576 47.7123 45.1896 45.7619 43.7728C43.8115 42.3553 43.3788 39.6254 44.7963 37.675C46.2131 35.7246 48.9436 35.2919 50.894 36.7094C52.8444 38.1262 53.2764 40.8561 51.8596 42.8065ZM52.8601 32C52.8601 31.1964 53.5116 30.5449 54.3152 30.5449C55.1188 30.5449 55.7704 31.1964 55.7704 32C55.7704 32.8036 55.1188 33.4552 54.3152 33.4552C53.5116 33.4552 52.8601 32.8036 52.8601 32Z" fill="url(#paint0_linear_48_20)"/>
<path d="M86.3988 44L90.3674 20.0949H99.7988C101.604 20.0949 103.09 20.4139 104.258 21.052C105.433 21.6901 106.258 22.5967 106.732 23.7717C107.215 24.9389 107.327 26.3163 107.071 27.9037C106.806 29.4912 106.234 30.853 105.355 31.9891C104.483 33.1252 103.347 34.0006 101.946 34.6154C100.554 35.2223 98.9389 35.5258 97.1024 35.5258H90.7876L91.488 31.4638H96.974C97.939 31.4638 98.7638 31.3315 99.4486 31.0669C100.133 30.8024 100.674 30.4055 101.071 29.8764C101.476 29.3472 101.74 28.6897 101.865 27.9037C101.997 27.1022 101.95 26.433 101.725 25.8961C101.499 25.3513 101.091 24.9389 100.499 24.6588C99.9077 24.3709 99.1295 24.2269 98.1646 24.2269H94.7563L91.453 44H86.3988ZM101.106 33.1213L105.25 44H99.6704L95.655 33.1213H101.106ZM108.162 44L112.131 20.0949H117.185L115.551 29.9581H125.811L127.445 20.0949H132.487L128.519 44H123.476L125.11 34.1251H114.85L113.216 44H108.162ZM132.686 44L136.654 20.0949H152.762L152.062 24.2619H141.008L140.074 29.9581H150.3L149.599 34.1251H139.374L138.44 39.8329H149.541L148.84 44H132.686ZM176.717 32.3743C176.281 34.9266 175.437 37.0938 174.184 38.8758C172.939 40.6578 171.418 42.0118 169.62 42.9378C167.831 43.8638 165.901 44.3268 163.831 44.3268C161.66 44.3268 159.788 43.8327 158.216 42.8444C156.652 41.8562 155.52 40.4282 154.82 38.5606C154.119 36.6853 153.987 34.4247 154.423 31.779C154.843 29.2188 155.68 27.0477 156.932 25.2657C158.185 23.476 159.714 22.1142 161.52 21.1804C163.325 20.2388 165.267 19.768 167.344 19.768C169.5 19.768 171.36 20.2661 172.924 21.2621C174.496 22.2582 175.628 23.6978 176.32 25.5809C177.021 27.4563 177.153 29.7207 176.717 32.3743ZM171.686 31.779C171.959 30.137 171.947 28.7597 171.651 27.6469C171.363 26.5264 170.834 25.6782 170.064 25.1023C169.293 24.5265 168.321 24.2386 167.146 24.2386C165.87 24.2386 164.698 24.5576 163.632 25.1957C162.574 25.8338 161.679 26.7598 160.948 27.9738C160.224 29.1799 159.722 30.6467 159.442 32.3743C159.162 34.024 159.17 35.4013 159.465 36.5063C159.769 37.6113 160.31 38.4478 161.088 39.0159C161.874 39.5761 162.85 39.8563 164.018 39.8563C165.286 39.8563 166.445 39.545 167.496 38.9225C168.554 38.2922 169.445 37.3778 170.169 36.1795C170.893 34.9733 171.398 33.5065 171.686 31.779ZM191.071 26.0711L190.453 29.8063H179.387L180.006 26.0711H191.071ZM179.539 44L182.749 24.7755C182.959 23.476 183.387 22.3982 184.033 21.5422C184.687 20.6863 185.492 20.0443 186.449 19.6163C187.414 19.1883 188.457 18.9743 189.577 18.9743C190.34 18.9743 191.029 19.0327 191.643 19.1494C192.266 19.2661 192.717 19.3712 192.997 19.4645L191.515 23.1997C191.328 23.1375 191.099 23.0791 190.826 23.0246C190.554 22.9702 190.266 22.9429 189.962 22.9429C189.239 22.9429 188.706 23.1141 188.363 23.4565C188.029 23.7911 187.803 24.2619 187.686 24.8689L184.5 44H179.539ZM200.05 20.0949L196.082 44H191.109L195.078 20.0949H200.05ZM200.065 44L203.053 26.0711H208.026L205.037 44H200.065ZM206.053 23.7367C205.314 23.7367 204.703 23.4915 204.22 23.0013C203.746 22.5033 203.551 21.9119 203.637 21.2271C203.722 20.5267 204.057 19.9353 204.641 19.4529C205.224 18.9626 205.886 18.7175 206.625 18.7175C207.364 18.7175 207.967 18.9626 208.434 19.4529C208.901 19.9353 209.096 20.5267 209.018 21.2271C208.94 21.9119 208.609 22.5033 208.026 23.0013C207.45 23.4915 206.792 23.7367 206.053 23.7367ZM216.164 26.0711L218.405 32.3392L222.829 26.0711H227.93L221.242 35.0356L225.082 44H220.004L217.495 37.8019L212.989 44H207.853L214.67 35.0356L211.028 26.0711H216.164Z" fill="url(#paint1_linear_48_20)"/>
<defs>
<linearGradient id="paint0_linear_48_20" x1="36.8533" y1="32" x2="71.7772" y2="32" gradientUnits="userSpaceOnUse">
<stop stop-color="#F5C51C"/>
<stop offset="1" stop-color="#FE42C2"/>
</linearGradient>
<linearGradient id="paint1_linear_48_20" x1="85.8152" y1="32" x2="227.815" y2="32" gradientUnits="userSpaceOnUse">
<stop stop-color="#F5C51C"/>
<stop offset="1" stop-color="#FF39CD"/>
</linearGradient>
</defs>
</svg>
