<svg width="24" height="25" viewBox="0 0 24 25" fill="none" xmlns="http://www.w3.org/2000/svg">
<g clip-path="url(#clip0_56_688)">
<path d="M12 0.545898C5.3828 0.545898 0 5.92921 0 12.5459C0 19.1626 5.3828 24.5459 12 24.5459C18.6172 24.5459 24 19.1626 24 12.5459C24 5.92921 18.6172 0.545898 12 0.545898ZM16.7705 12.9663L9.77053 17.4663C9.6885 17.5195 9.59377 17.5459 9.50002 17.5459C9.41798 17.5459 9.33497 17.5254 9.26077 17.4849C9.09961 17.397 9 17.229 9 17.0459V8.0459C9 7.8628 9.09961 7.6948 9.26077 7.60691C9.41897 7.52001 9.6172 7.52535 9.77053 7.62548L16.7705 12.1255C16.9131 12.2173 17 12.376 17 12.5459C17 12.7158 16.9131 12.8745 16.7705 12.9663Z" fill="#F0F0F0"/>
</g>
<defs>
<clipPath id="clip0_56_688">
<rect width="24" height="24" fill="white" transform="translate(0 0.545898)"/>
</clipPath>
</defs>
</svg>
