<svg width="24" height="25" viewBox="0 0 24 25" fill="none" xmlns="http://www.w3.org/2000/svg">
<g clip-path="url(#clip0_56_695)">
<path d="M12 0.545898C5.37 0.545898 0 5.9159 0 12.5459C0 19.1759 5.37 24.5459 12 24.5459C18.63 24.5459 24 19.1759 24 12.5459C24 5.9159 18.63 0.545898 12 0.545898ZM8.97 17.5259C8.97 17.9759 8.58 18.3659 8.13 18.3659H5.82C5.37 18.3659 4.98 17.9759 4.98 17.5259V10.9559C4.98 10.5059 5.37 10.1159 5.82 10.1159H8.13C8.58 10.1159 8.97 10.5059 8.97 10.9559V17.5259ZM18.78 12.3959C19.05 12.6059 19.2 12.9359 19.2 13.2959C19.2 13.8359 18.81 14.2859 18.33 14.4059C18.6 14.6159 18.75 14.9459 18.75 15.3059C18.75 15.8459 18.36 16.2959 17.85 16.4159C18.12 16.6259 18.27 16.9559 18.27 17.3159C18.27 17.9459 17.76 18.4559 17.13 18.4559L10.65 18.3959C10.2 18.3959 9.81 18.0059 9.81 17.5559V10.9559C9.81 9.9059 13.11 8.0159 13.29 6.9659C13.41 6.3059 13.26 4.5959 13.71 4.5959C14.49 4.5959 15.48 4.8959 15.48 6.6059C15.48 8.1059 14.49 10.0859 14.49 10.0859H18.51C19.14 10.0859 19.65 10.5959 19.65 11.2259C19.68 11.8259 19.29 12.2759 18.78 12.3959Z" fill="#999999"/>
</g>
<defs>
<clipPath id="clip0_56_695">
<rect width="24" height="24" fill="white" transform="translate(0 0.545898)"/>
</clipPath>
</defs>
</svg>
